<svg xmlns="http://www.w3.org/2000/svg" aria-hidden="true" style="position:absolute;width:0;height:0;overflow:hidden"><defs><symbol id="icon-map-pin" viewBox="0 0 32 32"><path fill="none" stroke="#9da4bd" stroke-linecap="round" stroke-linejoin="round" stroke-width="1.333" d="M26.667 13.818C26.667 21.454 16 28 16 28S5.333 21.455 5.333 13.818C5.333 8.396 10.109 4 16 4s10.667 4.396 10.667 9.818v0z" style="stroke:var(--color1, #9da4bd)"/><path fill="none" stroke="#9da4bd" stroke-linecap="round" stroke-linejoin="round" stroke-width="1.333" d="M16 18.667a4 4 0 1 0 0-8 4 4 0 0 0 0 8z" style="stroke:var(--color1, #9da4bd)"/></symbol><symbol id="icon-phone" viewBox="0 0 32 32"><path fill="none" stroke="#9da4bd" stroke-linecap="round" stroke-linejoin="round" stroke-width="1.333" d="M26.666 21.337v3.218a2.146 2.146 0 0 1-2.338 2.145 21.239 21.239 0 0 1-9.257-3.293 20.914 20.914 0 0 1-6.436-6.436 21.221 21.221 0 0 1-3.293-9.3 2.144 2.144 0 0 1 2.134-2.338h3.218a2.144 2.144 0 0 1 2.145 1.845c.136 1.03.388 2.041.751 3.014a2.144 2.144 0 0 1-.483 2.263l-1.362 1.362a17.162 17.162 0 0 0 6.436 6.436l1.362-1.362a2.146 2.146 0 0 1 2.263-.483c.973.363 1.984.615 3.014.751a2.144 2.144 0 0 1 1.845 2.177z" style="stroke:var(--color1, #9da4bd)"/></symbol><symbol id="icon-mail" viewBox="0 0 32 32"><path fill="none" stroke="#9da4bd" stroke-linecap="round" stroke-linejoin="round" stroke-width="1.333" d="M6.4 6.667h19.2c1.32 0 2.4 1.05 2.4 2.333v14c0 1.283-1.08 2.333-2.4 2.333H6.4C5.08 25.333 4 24.283 4 23V9c0-1.283 1.08-2.333 2.4-2.333z" style="stroke:var(--color1, #9da4bd)"/><path fill="none" stroke="#9da4bd" stroke-linecap="round" stroke-linejoin="round" stroke-width="1.333" d="m26.667 9.333-10.667 8-10.667-8" style="stroke:var(--color1, #9da4bd)"/></symbol><symbol id="icon-facebook" viewBox="0 0 32 32"><path d="M21.33 5.313h2.921V.225C23.747.156 22.014 0 19.995 0c-4.212 0-7.097 2.649-7.097 7.519V12H8.25v5.688h4.648V32h5.699V17.689h4.46l.708-5.688h-5.169V8.082c.001-1.644.444-2.769 2.735-2.769z"/></symbol><symbol id="icon-close" viewBox="0 0 32 32"><path d="M23.733 10.304 22.229 8.8l-5.963 5.963L10.303 8.8l-1.504 1.504 5.963 5.963-5.963 5.963 1.504 1.504 5.963-5.963 5.963 5.963 1.504-1.504-5.963-5.963 5.963-5.963z"/></symbol><symbol id="icon-menu" viewBox="0 0 32 32"><path fill="#fff" d="M6.4 11.733V9.6h19.2v2.133H6.4zm0 5.334h19.2v-2.133H6.4v2.133zm0 5.333h19.2v-2.133H6.4V22.4z" style="fill:var(--color2, #fff)"/></symbol><symbol id="icon-instagram" viewBox="0 0 32 32"><path d="M31.969 9.408c-.075-1.7-.35-2.869-.744-3.882a7.806 7.806 0 0 0-1.851-2.838A7.867 7.867 0 0 0 26.542.844C25.523.45 24.36.175 22.66.1 20.947.019 20.403 0 16.059 0s-4.888.019-6.595.094c-1.7.075-2.869.35-3.882.744a7.803 7.803 0 0 0-2.838 1.85A7.867 7.867 0 0 0 .9 5.52C.506 6.539.231 7.702.156 9.402c-.081 1.713-.1 2.257-.1 6.601s.019 4.888.094 6.595c.075 1.7.35 2.869.744 3.882a7.895 7.895 0 0 0 1.85 2.838 7.867 7.867 0 0 0 2.832 1.844c1.019.394 2.182.669 3.882.744 1.706.075 2.25.094 6.595.094s4.888-.019 6.595-.094c1.7-.075 2.869-.35 3.882-.744a8.184 8.184 0 0 0 4.682-4.682c.394-1.019.669-2.182.744-3.882.075-1.707.094-2.251.094-6.595s-.006-4.888-.081-6.595zm-2.882 13.065c-.069 1.563-.331 2.407-.55 2.969a5.31 5.31 0 0 1-3.038 3.038c-.563.219-1.413.481-2.969.55-1.688.075-2.194.094-6.464.094s-4.782-.019-6.464-.094c-1.563-.069-2.407-.331-2.969-.55a4.926 4.926 0 0 1-1.838-1.194 4.974 4.974 0 0 1-1.194-1.838c-.219-.563-.481-1.413-.55-2.969-.075-1.688-.094-2.194-.094-6.464s.019-4.782.094-6.464c.069-1.563.331-2.407.55-2.969a4.868 4.868 0 0 1 1.2-1.838A4.974 4.974 0 0 1 6.639 3.55c.563-.219 1.413-.481 2.969-.55 1.688-.075 2.194-.094 6.464-.094 4.276 0 4.782.019 6.464.094 1.563.069 2.407.331 2.969.55a4.914 4.914 0 0 1 1.838 1.194 4.974 4.974 0 0 1 1.194 1.838c.219.563.481 1.413.55 2.969.075 1.688.094 2.194.094 6.464s-.019 4.77-.094 6.458z"/><path d="M16.059 7.783c-4.538 0-8.22 3.682-8.22 8.22s3.682 8.22 8.22 8.22c4.539 0 8.22-3.682 8.22-8.22s-3.682-8.22-8.22-8.22zm0 13.553a5.333 5.333 0 0 1 0-10.664 5.333 5.333 0 0 1 0 10.664zM26.524 7.458a1.919 1.919 0 1 1-3.838 0 1.919 1.919 0 0 1 3.838 0z"/></symbol><symbol id="icon-linkedin" viewBox="0 0 32 32"><path d="M31.992 32v-.001H32V20.263c0-5.741-1.236-10.164-7.948-10.164-3.227 0-5.392 1.771-6.276 3.449h-.093v-2.913h-6.364v21.364h6.627V21.42c0-2.785.528-5.479 3.977-5.479 3.399 0 3.449 3.179 3.449 5.657v10.401h6.62zM.528 10.636h6.635V32H.528V10.636zM3.843 0C1.722 0 0 1.721 0 3.843s1.721 3.879 3.843 3.879c2.121 0 3.843-1.757 3.843-3.879A3.846 3.846 0 0 0 3.843 0z"/></symbol><symbol id="icon-logo" viewBox="0 0 40 32"><path d="m22.718 9.734-.76-.577a.582.582 0 0 0-.813.08L10.624 21.25l.162.179 2.606-2.389a.399.399 0 0 1-.101-.68.407.407 0 0 1 .492-.011.4.4 0 0 1 .143.2l3.435-3.168a.299.299 0 0 1 .372 0l.174.127a.293.293 0 0 0 .388-.046l4.491-5.008a.483.483 0 0 0 .131-.376.477.477 0 0 0-.201-.345z"/><path d="M27.663 13.115a23.516 23.516 0 0 1-7.614 3.548 41.426 41.426 0 0 1-8.281 1.223c.056.41.158.812.302 1.2 1.578 1.419 13.463-1.004 15.784-3.808.493-.583-.192-2.164-.192-2.164zM13.55 19.041a.397.397 0 0 1-.364-.242c-.03-.072-.038-.151-.022-.227s.053-.146.108-.201a.394.394 0 0 1 .43-.085.392.392 0 0 1 .243.363.39.39 0 0 1-.113.279.381.381 0 0 1-.281.113zM2.321 12.284l.093-.398 1.509.34c.124.229.201.48.226.739.029.274.011.551-.052.819a2.161 2.161 0 0 1-.499 1.004c-.24.27-.549.469-.894.577a2.127 2.127 0 0 1-1.097.04 2.037 2.037 0 0 1-.969-.508 1.902 1.902 0 0 1-.551-.906 2.173 2.173 0 0 1 0-1.154c.062-.283.174-.552.331-.796.148-.222.347-.406.58-.537l.209.317a1.654 1.654 0 0 0-.766 1.119c-.072.298-.066.61.017.906.078.281.233.534.447.733.22.212.496.358.795.421.29.081.598.081.888 0 .278-.091.528-.252.725-.467.203-.232.343-.512.406-.814a1.764 1.764 0 0 0-.07-1.102l-1.329-.335zM5.606 8.655l-1.352 1.794.58 1.033-.267.358L2.42 7.945l.25-.34 4.37.935-.273.358-1.161-.242zm-.383-.092-2.321-.519 1.161 2.071 1.161-1.552zM5.223 4.933l.348-.26 2.211 2.943L9.604 6.26l.22.294-2.165 1.61-2.437-3.231zM8.878 2.527l.389-.173 1.532 3.335 2.072-.935.151.335-2.46 1.114-1.683-3.675zM16.527 3.854l.087.364-2.797.652-.928-3.935 2.716-.629.081.358-2.321.537.331 1.396 2.043-.479.087.358-2.048.473.348 1.46 2.402-.554zM20.513 3.999l-.969-1.269a2.936 2.936 0 0 1-.325 0l-1.091.035.041 1.281h-.429L17.606.007 19.15.001c.436-.04.873.077 1.23.329a1.265 1.265 0 0 1 .476 1.004 1.33 1.33 0 0 1-.215.808c-.167.23-.402.402-.673.49l1.016 1.35-.47.017zM20.107 2.1a.917.917 0 0 0 .295-.756.94.94 0 0 0-.343-.738 1.42 1.42 0 0 0-.911-.237l-1.103.04.07 2.019 1.079-.035c.329.012.652-.092.911-.294zM23.583 2.925l-.209 1.379-.424-.063.215-1.356L21.964 0l.453.069 1.027 2.458L25.185.49l.406.087-2.008 2.348zM29.323 2.683l.505.652-.221.173-.505-.669-.319.756-.244-.104.325-.756-.836.11v-.277l.824-.092-.511-.652.226-.173.447.658.313-.762.25.104-.296.773.836-.115v.283l-.795.092zM31.261 7.334a1.592 1.592 0 0 1-.25-.698l.342-.15c.026.229.101.449.221.646.13.221.299.417.499.577.207.197.471.324.754.363a.633.633 0 0 0 .546-.225.527.527 0 0 0 .134-.392 1.063 1.063 0 0 0-.139-.398 6.168 6.168 0 0 0-.354-.514 5.27 5.27 0 0 1-.418-.635 1.162 1.162 0 0 1-.151-.542c0-.214.08-.42.226-.577.126-.152.293-.266.482-.329.21-.06.434-.06.644 0 .271.088.522.229.737.415.179.148.337.319.47.508.123.175.216.371.273.577l-.331.173a2.052 2.052 0 0 0-.255-.542 2.095 2.095 0 0 0-.389-.398 1.291 1.291 0 0 0-.749-.352.629.629 0 0 0-.546.237.5.5 0 0 0-.134.393.936.936 0 0 0 .139.41c.081.133.197.306.354.514.155.197.295.405.418.623.097.165.15.351.157.542 0 .214-.08.42-.226.577a1.034 1.034 0 0 1-.487.329 1.12 1.12 0 0 1-.644 0 2.16 2.16 0 0 1-.743-.415 2.631 2.631 0 0 1-.58-.715zM37.098 8.176l-.818-1.154.302-.213 1.886 2.677-.302.213-.818-1.154-3.029 2.106-.244-.352 3.023-2.123zM35.799 12.919c.104-.349.305-.661.58-.9.269-.24.598-.405.952-.479a2.125 2.125 0 0 1 1.091.04c.341.112.648.311.888.577.25.286.42.632.493 1.004a2.19 2.19 0 0 1 0 1.114 1.969 1.969 0 0 1-.58.9 2.162 2.162 0 0 1-2.071.45 1.954 1.954 0 0 1-.888-.577 2.16 2.16 0 0 1-.493-.998 2.202 2.202 0 0 1 .029-1.131zm.76 1.835c.194.219.445.381.725.467.289.083.595.093.889.029s.567-.201.794-.398a1.64 1.64 0 0 0 .458-.721 1.844 1.844 0 0 0-.377-1.697 1.653 1.653 0 0 0-.749-.467 1.759 1.759 0 0 0-.894 0 1.6 1.6 0 0 0-.789.398 1.604 1.604 0 0 0-.458.727 1.716 1.716 0 0 0 0 .894c.064.286.202.551.4.767zM35.358 19.618l1.503-.577c0-.104.035-.208.064-.317l.284-1.044-1.23-.317.11-.41 3.923 1.044-.395 1.46a1.831 1.831 0 0 1-.673 1.073 1.254 1.254 0 0 1-1.102.161 1.257 1.257 0 0 1-.992-1.217l-1.602.577.11-.433zm1.943.161a1.044 1.044 0 0 0 1.456.388c.256-.205.431-.493.493-.814l.279-1.039-1.967-.525-.279 1.039c-.107.309-.101.647.017.952zM33.274 23.334l-.296-.225 1.741-2.279 3.238 2.441-1.683 2.21-.296-.225 1.422-1.864-1.161-.871-1.271 1.668-.29-.219 1.3-1.668-1.201-.906-1.503 1.939zM31.917 27.932l-.83.046v-.277l.83-.006-.447-.687.226-.144.441.692.36-.773.249.133-.395.727.83-.046v.283h-.841l.447.687-.226.144-.441-.692-.383.75-.244-.139.424-.698zM24.372 27.471l.702.387a1.796 1.796 0 0 1 1.161-.911c.231-.072.473-.097.714-.075.209.016.409.088.58.208a.91.91 0 0 1 .325.462c.07.228.058.473-.035.692a2.89 2.89 0 0 1-.58.802c.191.102.369.228.528.375.109.112.191.249.238.398.03.116.032.238.005.355s-.08.227-.156.32c-.155.222-.386.38-.65.444a1.015 1.015 0 0 1-.72 0 .73.73 0 0 1-.418-.49.78.78 0 0 1 .041-.577c.133-.262.308-.502.517-.71l-1.399-.773c-.053.272-.065.55-.035.825h-.354a2.752 2.752 0 0 1 .116-1.004l-.731-.404.151-.323zm1.01.577 1.538.848c.202-.191.368-.416.493-.664a.725.725 0 0 0 0-.519.613.613 0 0 0-.406-.432 1.166 1.166 0 0 0-.743 0 1.403 1.403 0 0 0-.905.75l.023.017zm2.182 2.308a.519.519 0 0 0 .047-.426.707.707 0 0 0-.186-.3 2.493 2.493 0 0 0-.482-.317c-.176.173-.33.367-.458.577a.572.572 0 0 0-.046.427.48.48 0 0 0 .256.306.656.656 0 0 0 .458 0 .691.691 0 0 0 .389-.271l.023.006zM17.299 31.919l.081-4.039h.412l-.064 3.231 1.648-2.689h.203l1.544 2.735.058-3.214h.412l-.075 4.039h-.354l-1.706-3.018-1.805 2.96-.354-.006zM15.279 27.696a1.957 1.957 0 0 1 .529 1.997 2.057 2.057 0 0 1-.551.941 1.96 1.96 0 0 1-.934.508 2.25 2.25 0 0 1-1.126-.035 2.195 2.195 0 0 1-.975-.525 1.944 1.944 0 0 1-.54-.912 2.117 2.117 0 0 1 .58-2.031c.253-.252.57-.431.917-.519.37-.083.756-.071 1.12.035.369.093.707.28.981.542zm-1.979-.202c-.284.066-.543.21-.749.415a1.667 1.667 0 0 0-.441.767 1.635 1.635 0 0 0 0 .883c.068.281.215.537.424.738.219.212.488.366.783.444.295.075.604.075.899 0a1.65 1.65 0 0 0 .754-.415 1.69 1.69 0 0 0 .441-.767 1.657 1.657 0 0 0 0-.889 1.626 1.626 0 0 0-.429-.739 1.75 1.75 0 0 0-.789-.439 1.695 1.695 0 0 0-.894 0zM8.907 24.811l.157 1.587c.1.042.196.09.29.144l.946.542.638-1.119.377.213-2.031 3.479-1.323-.756a1.836 1.836 0 0 1-.87-.923 1.266 1.266 0 0 1 .128-1.097 1.33 1.33 0 0 1 .609-.577 1.36 1.36 0 0 1 .836-.064l-.168-1.696.412.265zm-.661 1.823a1.053 1.053 0 0 0-.652.49 1.037 1.037 0 0 0-.096.808c.136.299.372.541.667.687l.934.537 1.016-1.731-.934-.537a1.44 1.44 0 0 0-.934-.283v.029zM5.472 22.105l.261-.26 2.002 2.048-2.902 2.816-1.932-1.985.267-.26 1.642 1.679.992-.998-1.439-1.489.279-.265 1.468 1.5 1.079-1.044-1.718-1.742zM1.161 19.837l.139-.796.273.04-.157.819.772-.283.093.254-.783.265.644.542-.186.208-.621-.577-.145.819-.279-.052.162-.819-.778.277-.087-.225.778-.271-.644-.537.192-.208.627.542z"/></symbol><symbol id="icon-twitter" viewBox="0 0 32 32"><path d="M32 6.078c-1.19.522-2.458.868-3.78 1.036a6.523 6.523 0 0 0 2.886-3.626 13.11 13.11 0 0 1-4.16 1.588A6.574 6.574 0 0 0 22.154 3c-3.632 0-6.556 2.948-6.556 6.562 0 .52.044 1.02.152 1.496-5.454-.266-10.28-2.88-13.522-6.862a6.605 6.605 0 0 0-.898 3.316 6.57 6.57 0 0 0 2.914 5.452 6.479 6.479 0 0 1-2.964-.808v.072c0 3.188 2.274 5.836 5.256 6.446a6.548 6.548 0 0 1-1.72.216 5.8 5.8 0 0 1-1.242-.112c.85 2.598 3.262 4.508 6.13 4.57a13.182 13.182 0 0 1-8.134 2.798c-.538 0-1.054-.024-1.57-.09A18.469 18.469 0 0 0 10.064 29c12.072 0 18.672-10 18.672-18.668 0-.29-.01-.57-.024-.848A13.087 13.087 0 0 0 32 6.078z"/></symbol></defs></svg>